{
  "accessors": [
    {
      "bufferView": 2,
      "componentType": 5126,
      "count": 2102,
      "max": [
        -237.13656616210938,
        81.01713562011719,
        255.88597106933594
      ],
      "min": [
        -386.83416748046875,
        -66.7159652709961,
        -255.88597106933594
      ],
      "type": "VEC3"
    },
    {
      "bufferView": 2,
      "byteOffset": 25224,
      "componentType": 5126,
      "count": 2102,
      "max": [
        0.9897838830947876,
        1.0,
        0.9994391202926636
      ],
      "min": [
        -0.9897838830947876,
        -1.0,
        -0.9994391202926636
      ],
      "type": "VEC3"
    },
    {
      "bufferView": 1,
      "componentType": 5126,
      "count": 2102,
      "max": [
        0.9985293745994568,
        0.9966030120849609
      ],
      "min": [
        0.001720264321193099,
        0.009404778480529785
      ],
      "type": "VEC2"
    },
    {
      "bufferView": 1,
      "byteOffset": 16816,
      "componentType": 5126,
      "count": 2102,
      "max": [
        0.9985293745994568,
        0.9966030120849609
      ],
      "min": [
        0.001720264321193099,
        0.009404778480529785
      ],
      "type": "VEC2"
    },
    {
      "bufferView": 1,
      "byteOffset": 33632,
      "componentType": 5126,
      "count": 2102,
      "max": [
        0.9985293745994568,
        0.9966030120849609
      ],
      "min": [
        0.001720264321193099,
        0.009404778480529785
      ],
      "type": "VEC2"
    },
    {
      "bufferView": 1,
      "byteOffset": 50448,
      "componentType": 5126,
      "count": 2102,
      "max": [
        0.9985293745994568,
        0.9966030120849609
      ],
      "min": [
        0.001720264321193099,
        0.009404778480529785
      ],
      "type": "VEC2"
    },
    {
      "bufferView": 0,
      "componentType": 5125,
      "count": 6408,
      "type": "SCALAR"
    },
    {
      "bufferView": 2,
      "byteOffset": 50448,
      "componentType": 5126,
      "count": 2102,
      "max": [
        372.6672058105469,
        81.01713562011719,
        245.6694793701172
      ],
      "min": [
        222.96044921875,
        -66.7159652709961,
        -245.6694793701172
      ],
      "type": "VEC3"
    },
    {
      "bufferView": 2,
      "byteOffset": 75672,
      "componentType": 5126,
      "count": 2102,
      "max": [
        1.0,
        1.0,
        1.0
      ],
      "min": [
        -1.0,
        -1.0,
        -1.0
      ],
      "type": "VEC3"
    },
    {
      "bufferView": 1,
      "byteOffset": 67264,
      "componentType": 5126,
      "count": 2102,
      "max": [
        0.9985293745994568,
        0.9966030120849609
      ],
      "min": [
        0.001720264321193099,
        0.009404778480529785
      ],
      "type": "VEC2"
    },
    {
      "bufferView": 1,
      "byteOffset": 84080,
      "componentType": 5126,
      "count": 2102,
      "max": [
        0.9985293745994568,
        0.9966030120849609
      ],
      "min": [
        0.001720264321193099,
        0.009404778480529785
      ],
      "type": "VEC2"
    },
    {
      "bufferView": 1,
      "byteOffset": 100896,
      "componentType": 5126,
      "count": 2102,
      "max": [
        0.9985293745994568,
        0.9966030120849609
      ],
      "min": [
        0.001720264321193099,
        0.009404778480529785
      ],
      "type": "VEC2"
    },
    {
      "bufferView": 1,
      "byteOffset": 117712,
      "componentType": 5126,
      "count": 2102,
      "max": [
        0.9985293745994568,
        0.9966030120849609
      ],
      "min": [
        0.001720264321193099,
        0.009404778480529785
      ],
      "type": "VEC2"
    },
    {
      "bufferView": 0,
      "byteOffset": 25632,
      "componentType": 5125,
      "count": 6408,
      "type": "SCALAR"
    },
    {
      "bufferView": 2,
      "byteOffset": 100896,
      "componentType": 5126,
      "count": 15158,
      "max": [
        533.7103271484375,
        124.41010284423828,
        237.25767517089844
      ],
      "min": [
        -533.7103271484375,
        -124.41010284423828,
        -237.25767517089844
      ],
      "type": "VEC3"
    },
    {
      "bufferView": 2,
      "byteOffset": 282792,
      "componentType": 5126,
      "count": 15158,
      "max": [
        0.9997511506080627,
        1.0,
        1.0
      ],
      "min": [
        -0.9999416470527649,
        -1.0,
        -1.0
      ],
      "type": "VEC3"
    },
    {
      "bufferView": 3,
      "componentType": 5126,
      "count": 15158,
      "max": [
        0.9999990463256836,
        0.9999201893806458,
        1.0,
        1.0
      ],
      "min": [
        -1.0,
        -0.9994704723358154,
        -0.9999986290931702,
        -1.0
      ],
      "type": "VEC4"
    },
    {
      "bufferView": 1,
      "byteOffset": 134528,
      "componentType": 5126,
      "count": 15158,
      "max": [
        6.3274359703063965,
        12.353700637817383
      ],
      "min": [
        -10.90870189666748,
        -6.341055870056152
      ],
      "type": "VEC2"
    },
    {
      "bufferView": 0,
      "byteOffset": 51264,
      "componentType": 5125,
      "count": 73332,
      "type": "SCALAR"
    },
    {
      "bufferView": 2,
      "byteOffset": 464688,
      "componentType": 5126,
      "count": 8761,
      "max": [
        531.90966796875,
        117.82168579101563,
        230.041015625
      ],
      "min": [
        -531.90966796875,
        -117.82168579101563,
        -230.041015625
      ],
      "type": "VEC3"
    },
    {
      "bufferView": 2,
      "byteOffset": 569820,
      "componentType": 5126,
      "count": 8761,
      "max": [
        1.0,
        1.0,
        1.0
      ],
      "min": [
        -1.0,
        -1.0,
        -1.0
      ],
      "type": "VEC3"
    },
    {
      "bufferView": 3,
      "byteOffset": 242528,
      "componentType": 5126,
      "count": 8761,
      "max": [
        1.0,
        1.0,
        1.0,
        1.0
      ],
      "min": [
        -1.0,
        -1.0,
        -1.0,
        -1.0
      ],
      "type": "VEC4"
    },
    {
      "bufferView": 1,
      "byteOffset": 255792,
      "componentType": 5126,
      "count": 8761,
      "max": [
        0.9922776222229004,
        0.9962716698646545
      ],
      "min": [
        -0.0014533530920743942,
        0.00828564167022705
      ],
      "type": "VEC2"
    },
    {
      "bufferView": 0,
      "byteOffset": 344592,
      "componentType": 5125,
      "count": 28491,
      "type": "SCALAR"
    },
    {
      "bufferView": 2,
      "byteOffset": 674952,
      "componentType": 5126,
      "count": 145,
      "max": [
        -162.73292541503906,
        48.159027099609375,
        223.4460906982422
      ],
      "min": [
        -524.6185913085938,
        -114.11835479736328,
        -223.44607543945313
      ],
      "type": "VEC3"
    },
    {
      "bufferView": 2,
      "byteOffset": 676692,
      "componentType": 5126,
      "count": 145,
      "max": [
        -0.5479541420936584,
        0.5388026833534241,
        0.7177709341049194
      ],
      "min": [
        -1.0,
        -0.7046857476234436,
        -0.7177709341049194
      ],
      "type": "VEC3"
    },
    {
      "bufferView": 3,
      "byteOffset": 382704,
      "componentType": 5126,
      "count": 145,
      "max": [
        0.735781192779541,
        1.0,
        0.9982196688652039,
        1.0
      ],
      "min": [
        -0.1651374250650406,
        -0.9862706065177917,
        -1.0,
        -1.0
      ],
      "type": "VEC4"
    },
    {
      "bufferView": 1,
      "byteOffset": 325880,
      "componentType": 5126,
      "count": 145,
      "max": [
        0.9705032110214233,
        0.9900156855583191
      ],
      "min": [
        0.011852255091071129,
        0.030342578887939453
      ],
      "type": "VEC2"
    },
    {
      "bufferView": 0,
      "byteOffset": 458556,
      "componentType": 5125,
      "count": 450,
      "type": "SCALAR"
    },
    {
      "bufferView": 2,
      "byteOffset": 678432,
      "componentType": 5126,
      "count": 5598,
      "max": [
        532.8976440429688,
        21.334367752075195,
        201.01573181152344
      ],
      "min": [
        -509.629150390625,
        -41.70174789428711,
        -201.01571655273438
      ],
      "type": "VEC3"
    },
    {
      "bufferView": 2,
      "byteOffset": 745608,
      "componentType": 5126,
      "count": 5598,
      "max": [
        0.999521017074585,
        1.0,
        0.9965845942497253
      ],
      "min": [
        -1.0,
        -1.0,
        -0.9965845942497253
      ],
      "type": "VEC3"
    },
    {
      "bufferView": 3,
      "byteOffset": 385024,
      "componentType": 5126,
      "count": 5598,
      "max": [
        0.999984622001648,
        0.9997096061706543,
        0.9999996423721313,
        1.0
      ],
      "min": [
        -1.0,
        -0.9999995231628418,
        -0.9999996423721313,
        -1.0
      ],
      "type": "VEC4"
    },
    {
      "bufferView": 1,
      "byteOffset": 327040,
      "componentType": 5126,
      "count": 5598,
      "max": [
        0.9927695393562317,
        0.9905422925949097
      ],
      "min": [
        0.010543230921030045,
        0.0076313018798828125
      ],
      "type": "VEC2"
    },
    {
      "bufferView": 0,
      "byteOffset": 460356,
      "componentType": 5125,
      "count": 17022,
      "type": "SCALAR"
    },
    {
      "bufferView": 2,
      "byteOffset": 812784,
      "componentType": 5126,
      "count": 644,
      "max": [
        532.9058227539063,
        114.06767272949219,
        201.01573181152344
      ],
      "min": [
        -512.9951782226563,
        -40.37953186035156,
        -201.01571655273438
      ],
      "type": "VEC3"
    },
    {
      "bufferView": 2,
      "byteOffset": 820512,
      "componentType": 5126,
      "count": 644,
      "max": [
        0.9969513416290283,
        0.9534209370613098,
        0.981292724609375
      ],
      "min": [
        -1.0,
        -0.9508915543556213,
        -0.981292724609375
      ],
      "type": "VEC3"
    },
    {
      "bufferView": 1,
      "byteOffset": 371824,
      "componentType": 5126,
      "count": 644,
      "max": [
        0.964775800704956,
        0.9958428740501404
      ],
      "min": [
        0.004157113842666149,
        0.0041571855545043945
      ],
      "type": "VEC2"
    },
    {
      "bufferView": 0,
      "byteOffset": 528444,
      "componentType": 5125,
      "count": 3036,
      "type": "SCALAR"
    }
  ],
  "asset": {
    "extras": {
      "author": "Evan (https://sketchfab.com/Evanz)",
      "license": "CC-BY-4.0 (http://creativecommons.org/licenses/by/4.0/)",
      "source": "https://sketchfab.com/3d-models/muscle-car-mustang-alpha-645373d49e5e4ee5adabe92178f33d67",
      "title": "Muscle car \"Mustang Alpha\""
    },
    "generator": "Sketchfab-10.48.0",
    "version": "2.0"
  },
  "bufferViews": [
    {
      "buffer": 0,
      "byteLength": 540588,
      "name": "floatBufferViews",
      "target": 34963
    },
    {
      "buffer": 0,
      "byteLength": 376976,
      "byteOffset": 540588,
      "byteStride": 8,
      "name": "floatBufferViews",
      "target": 34962
    },
    {
      "buffer": 0,
      "byteLength": 828240,
      "byteOffset": 917564,
      "byteStride": 12,
      "name": "floatBufferViews",
      "target": 34962
    },
    {
      "buffer": 0,
      "byteLength": 474592,
      "byteOffset": 1745804,
      "byteStride": 16,
      "name": "floatBufferViews",
      "target": 34962
    }
  ],
  "buffers": [
    {
      "byteLength": 2220396,
      "uri": "scene.bin"
    }
  ],
  "extensionsUsed": [
    "KHR_materials_clearcoat"
  ],
  "images": [
    {
      "uri": "textures/Wheels_baseColor.png"
    },
    {
      "uri": "textures/Wheels_metallicRoughness.png"
    },
    {
      "uri": "textures/Hull_normal.jpeg"
    },
    {
      "uri": "textures/Hull_clearcoat_normal.png"
    },
    {
      "uri": "textures/Props_baseColor.jpeg"
    },
    {
      "uri": "textures/Props_metallicRoughness.png"
    },
    {
      "uri": "textures/Props_normal.png"
    },
    {
      "uri": "textures/grid_baseColor.png"
    },
    {
      "uri": "textures/grid_normal.png"
    },
    {
      "uri": "textures/Lights_baseColor.jpeg"
    },
    {
      "uri": "textures/Lights_metallicRoughness.png"
    },
    {
      "uri": "textures/Lights_normal.png"
    },
    {
      "uri": "textures/Glass_baseColor.png"
    }
  ],
  "materials": [
    {
      "alphaCutoff": 0.9011530846,
      "alphaMode": "MASK",
      "doubleSided": true,
      "name": "Wheels",
      "pbrMetallicRoughness": {
        "baseColorFactor": [
          0.28480088335912934,
          0.28480088335912934,
          0.28480088335912934,
          1.0
        ],
        "baseColorTexture": {
          "index": 0
        },
        "metallicRoughnessTexture": {
          "index": 1
        }
      }
    },
    {
      "doubleSided": true,
      "extensions": {
        "KHR_materials_clearcoat": {
          "clearcoatFactor": 1.0,
          "clearcoatNormalTexture": {
            "index": 3,
            "scale": 0.3854298141767394
          },
          "clearcoatRoughnessFactor": 0.0
        }
      },
      "name": "Hull",
      "normalTexture": {
        "index": 2,
        "scale": 0.0017820154
      },
      "pbrMetallicRoughness": {
        "baseColorFactor": [
          0.07157497365894495,
          0.1649536470712794,
          0.1681438084417918,
          1.0
        ],
        "metallicFactor": 0.8508386192081859,
        "roughnessFactor": 0.0
      }
    },
    {
      "doubleSided": true,
      "name": "Props",
      "normalTexture": {
        "index": 6
      },
      "pbrMetallicRoughness": {
        "baseColorTexture": {
          "index": 4
        },
        "metallicFactor": 0.8822851601,
        "metallicRoughnessTexture": {
          "index": 5
        }
      }
    },
    {
      "alphaCutoff": 0.272222267,
      "alphaMode": "MASK",
      "doubleSided": true,
      "name": "grid",
      "normalTexture": {
        "index": 8
      },
      "pbrMetallicRoughness": {
        "baseColorFactor": [
          0.0218076349,
          0.0218076349,
          0.0218076349,
          1.0
        ],
        "baseColorTexture": {
          "index": 7
        },
        "roughnessFactor": 0.48878402230124807
      }
    },
    {
      "name": "Lights",
      "normalTexture": {
        "index": 11
      },
      "pbrMetallicRoughness": {
        "baseColorTexture": {
          "index": 9
        },
        "metallicRoughnessTexture": {
          "index": 10
        },
        "roughnessFactor": 0.0
      }
    },
    {
      "alphaMode": "BLEND",
      "doubleSided": true,
      "extensions": {
        "KHR_materials_clearcoat": {
          "clearcoatFactor": 1.0,
          "clearcoatRoughnessFactor": 0.0
        }
      },
      "name": "Glass",
      "pbrMetallicRoughness": {
        "baseColorFactor": [
          0.08278013630699911,
          0.08278013630699911,
          0.08278013630699911,
          0.7942348456232803
        ],
        "baseColorTexture": {
          "index": 12
        },
        "roughnessFactor": 0.0
      }
    }
  ],
  "meshes": [
    {
      "name": "Wheel_4_Wheels_0",
      "primitives": [
        {
          "attributes": {
            "NORMAL": 1,
            "POSITION": 0,
            "TEXCOORD_0": 2,
            "TEXCOORD_1": 3,
            "TEXCOORD_2": 4,
            "TEXCOORD_3": 5
          },
          "indices": 6,
          "material": 0,
          "mode": 4
        }
      ]
    },
    {
      "name": "Wheel_Wheels_0",
      "primitives": [
        {
          "attributes": {
            "NORMAL": 8,
            "POSITION": 7,
            "TEXCOORD_0": 9,
            "TEXCOORD_1": 10,
            "TEXCOORD_2": 11,
            "TEXCOORD_3": 12
          },
          "indices": 13,
          "material": 0,
          "mode": 4
        }
      ]
    },
    {
      "name": "Hull_Hull_0",
      "primitives": [
        {
          "attributes": {
            "NORMAL": 15,
            "POSITION": 14,
            "TANGENT": 16,
            "TEXCOORD_0": 17
          },
          "indices": 18,
          "material": 1,
          "mode": 4
        }
      ]
    },
    {
      "name": "Props_Props_0",
      "primitives": [
        {
          "attributes": {
            "NORMAL": 20,
            "POSITION": 19,
            "TANGENT": 21,
            "TEXCOORD_0": 22
          },
          "indices": 23,
          "material": 2,
          "mode": 4
        }
      ]
    },
    {
      "name": "Grid_grid_0",
      "primitives": [
        {
          "attributes": {
            "NORMAL": 25,
            "POSITION": 24,
            "TANGENT": 26,
            "TEXCOORD_0": 27
          },
          "indices": 28,
          "material": 3,
          "mode": 4
        }
      ]
    },
    {
      "name": "Lights_Lights_0",
      "primitives": [
        {
          "attributes": {
            "NORMAL": 30,
            "POSITION": 29,
            "TANGENT": 31,
            "TEXCOORD_0": 32
          },
          "indices": 33,
          "material": 4,
          "mode": 4
        }
      ]
    },
    {
      "name": "Glass_Glass_0",
      "primitives": [
        {
          "attributes": {
            "NORMAL": 35,
            "POSITION": 34,
            "TEXCOORD_0": 36
          },
          "indices": 37,
          "material": 5,
          "mode": 4
        }
      ]
    }
  ],
  "nodes": [
    {
      "children": [
        1
      ],
      "matrix": [
        1.0,
        0.0,
        0.0,
        0.0,
        0.0,
        2.220446049250313e-16,
        -1.0,
        0.0,
        0.0,
        1.0,
        2.220446049250313e-16,
        0.0,
        0.0,
        0.0,
        0.0,
        1.0
      ],
      "name": "Sketchfab_model"
    },
    {
      "children": [
        2
      ],
      "matrix": [
        1.0,
        0.0,
        0.0,
        0.0,
        0.0,
        0.0,
        1.0,
        0.0,
        0.0,
        -1.0,
        0.0,
        0.0,
        0.0,
        0.0,
        0.0,
        1.0
      ],
      "name": "44629a58e4094d74a699035db8eb07c2.fbx"
    },
    {
      "children": [
        3,
        5,
        7,
        9,
        11,
        13,
        15
      ],
      "name": "RootNode"
    },
    {
      "children": [
        4
      ],
      "matrix": [
        1.0,
        0.0,
        -2.4492935982947064e-16,
        0.0,
        0.0,
        1.0,
        0.0,
        0.0,
        2.4492935982947064e-16,
        0.0,
        1.0,
        0.0,
        261.3794860839844,
        -100.07974243164063,
        -0.06558499485254288,
        1.0
      ],
      "name": "Wheel_4"
    },
    {
      "mesh": 0,
      "name": "Wheel_4_Wheels_0"
    },
    {
      "children": [
        6
      ],
      "matrix": [
        1.0,
        0.0,
        -2.4492935982947064e-16,
        0.0,
        0.0,
        1.0,
        0.0,
        0.0,
        2.4492935982947064e-16,
        0.0,
        1.0,
        0.0,
        261.3794860839844,
        -100.07974243164063,
        -0.06558499485254288,
        1.0
      ],
      "name": "Wheel"
    },
    {
      "mesh": 1,
      "name": "Wheel_Wheels_0"
    },
    {
      "children": [
        8
      ],
      "matrix": [
        1.0,
        0.0,
        0.0,
        0.0,
        0.0,
        1.0,
        0.0,
        0.0,
        0.0,
        0.0,
        1.0,
        0.0,
        311.8279113769531,
        -8.933333396911621,
        -7.880053999542724e-06,
        1.0
      ],
      "name": "Hull"
    },
    {
      "mesh": 2,
      "name": "Hull_Hull_0"
    },
    {
      "children": [
        10
      ],
      "matrix": [
        1.0,
        0.0,
        0.0,
        0.0,
        0.0,
        1.0,
        0.0,
        0.0,
        0.0,
        0.0,
        1.0,
        0.0,
        310.0272216796875,
        -15.521751403808594,
        -5.9727049119828735e-06,
        1.0
      ],
      "name": "Props"
    },
    {
      "mesh": 3,
      "name": "Props_Props_0"
    },
    {
      "children": [
        12
      ],
      "matrix": [
        1.0,
        0.0,
        0.0,
        0.0,
        0.0,
        1.0,
        0.0,
        0.0,
        0.0,
        0.0,
        1.0,
        0.0,
        310.0272216796875,
        -15.521751403808594,
        -5.9727049119828735e-06,
        1.0
      ],
      "name": "Grid"
    },
    {
      "mesh": 4,
      "name": "Grid_grid_0"
    },
    {
      "children": [
        14
      ],
      "matrix": [
        1.0,
        0.0,
        0.0,
        0.0,
        0.0,
        1.0,
        0.0,
        0.0,
        0.0,
        0.0,
        1.0,
        0.0,
        306.0203857421875,
        -15.521751403808594,
        -7.880053999542724e-06,
        1.0
      ],
      "name": "Lights"
    },
    {
      "mesh": 5,
      "name": "Lights_Lights_0"
    },
    {
      "children": [
        16
      ],
      "matrix": [
        1.0,
        0.0,
        0.0,
        0.0,
        0.0,
        1.0,
        0.0,
        0.0,
        0.0,
        0.0,
        1.0,
        0.0,
        308.156982421875,
        -15.521751403808594,
        -7.880053999542724e-06,
        1.0
      ],
      "name": "Glass"
    },
    {
      "mesh": 6,
      "name": "Glass_Glass_0"
    }
  ],
  "samplers": [
    {
      "magFilter": 9729,
      "minFilter": 9987,
      "wrapS": 10497,
      "wrapT": 10497
    }
  ],
  "scene": 0,
  "scenes": [
    {
      "name": "Sketchfab_Scene",
      "nodes": [
        0
      ]
    }
  ],
  "textures": [
    {
      "sampler": 0,
      "source": 0
    },
    {
      "sampler": 0,
      "source": 1
    },
    {
      "sampler": 0,
      "source": 2
    },
    {
      "sampler": 0,
      "source": 3
    },
    {
      "sampler": 0,
      "source": 4
    },
    {
      "sampler": 0,
      "source": 5
    },
    {
      "sampler": 0,
      "source": 6
    },
    {
      "sampler": 0,
      "source": 7
    },
    {
      "sampler": 0,
      "source": 8
    },
    {
      "sampler": 0,
      "source": 9
    },
    {
      "sampler": 0,
      "source": 10
    },
    {
      "sampler": 0,
      "source": 11
    },
    {
      "sampler": 0,
      "source": 12
    }
  ]
}
